<?xml version="1.0" encoding="UTF-8"?>
<svg id="Layer_2" data-name="Layer 2" xmlns="http://www.w3.org/2000/svg" viewBox="0 0 872.35 59.29">
  <defs>
    <style>
      .cls-1 {
        fill: #0d3445;
        stroke-width: 0px;
      }
    </style>
  </defs>
  <g id="Layer_1-2" data-name="Layer 1">
    <path class="cls-1" d="m335.83,28.59c-.35-.58-.53-.53-.53.15v27.59c0,.47-.24.71-.71.71h-13.7c-.35,0-.53-.18-.53-.53l.02-55.97c0-.34.17-.51.5-.51h11.95c.56,0,.98.25,1.27.72l19.2,31.61c.11.19.35.24.54.13.06-.03.11-.08.14-.14L372.83.53c.19-.33.48-.5.87-.5h12.19c.33,0,.49.16.49.48l.17,55.94c0,.39-.19.59-.58.59h-13.66c-.41,0-.61-.2-.61-.61l-.08-28.17c0-.96-.25-1.03-.74-.2l-13.64,22.97c-.16.28-.46.45-.79.45h-6.04c-.39,0-.69-.17-.9-.5l-13.68-22.39Z"/>
    <path class="cls-1" d="m452.71,31.93c.09,19.05-13.46,27.92-31.36,25.94-10.63-1.17-17.58-6.38-20.86-15.63-1.17-3.3-1.7-8.6-1.61-15.9.11-8.63.12-17.2.01-25.73,0-.38.18-.57.57-.57h15.13c.37,0,.56.18.56.55-.05,10.82-.04,21.5.02,32.03.04,6.99,3.53,12.43,11.24,12.16,8.76-.31,10.48-7.15,10.46-14.64-.03-9.98-.03-19.84,0-29.57,0-.36.19-.54.55-.54h14.71c.41,0,.62.21.61.62-.07,10.39-.08,20.82-.03,31.28Z"/>
    <path class="cls-1" d="m503.28,34.78h-21.54c-.2,0-.36.16-.36.36h0v21.54c0,.2-.16.36-.36.36h-15.47c-.2,0-.36-.16-.36-.36h0V.39c0-.2.16-.36.36-.36h15.47c.2,0,.36.16.36.36v20.76c0,.2.16.36.36.36h21.54c.2,0,.36-.16.36-.36V.39c0-.2.16-.36.36-.36h15.42c.2,0,.36.17.36.37h0v56.28c0,.2-.16.36-.36.36h-15.42c-.2,0-.36-.16-.36-.36v-21.54c0-.2-.16-.36-.36-.36Z"/>
    <path class="cls-1" d="m546.72,46.42l-4.25,10.41c-.05.12-.17.21-.3.21h-15.78c-.18,0-.33-.14-.34-.32,0-.05,0-.09.03-.14L550.95.23c.05-.12.18-.2.31-.2h15.45c.13.01.25.09.3.21l24.93,56.34c.07.17,0,.36-.17.43-.04.02-.08.03-.13.03h-16.09c-.13,0-.25-.08-.3-.2l-4.28-10.43c-.05-.12-.17-.2-.3-.2h-23.65c-.13,0-.25.09-.3.21Zm5.02-12.61c-.07.17.02.36.19.43.04.01.07.02.11.02h13.62c.18,0,.33-.16.32-.34,0-.04,0-.08-.02-.11l-6.8-17.06c-.06-.17-.25-.26-.42-.2-.09.03-.16.11-.2.2l-6.8,17.06Z"/>
    <path class="cls-1" d="m613.33,28.72v27.72c.01.4-.19.6-.6.6h-13.82c-.35,0-.52-.17-.52-.51V.53c0-.33.17-.5.5-.5h11.96c.56,0,.99.25,1.28.73l19.2,31.6c.23.37.46.37.68-.01l18.85-31.81c.19-.33.49-.5.88-.51h12.16c.33,0,.49.16.49.49l.21,55.91c0,.41-.2.61-.61.61h-13.66c-.39,0-.59-.2-.6-.59l-.1-28.44c0-.77-.21-.83-.6-.17l-13.72,23.12c-.21.35-.51.52-.91.52h-5.96c-.39,0-.69-.17-.9-.51l-13.69-22.39c-.35-.56-.52-.51-.52.14Z"/>
    <path class="cls-1" d="m692.62,28.73v27.81c0,.28-.22.5-.5.5h-13.96c-.34,0-.51-.17-.51-.51V.53c0-.28.22-.5.49-.5h12.29c.36,0,.63.15.82.46l19.36,31.86c.23.38.45.38.68,0l18.79-31.71c.24-.41.6-.61,1.07-.61h11.81c.47,0,.71.25.71.72l.22,55.78c0,.33-.17.5-.5.5h-13.77c-.37,0-.56-.17-.56-.54l-.18-28.65c0-.6-.15-.64-.46-.12l-13.84,23.24c-.19.32-.54.52-.91.52h-5.98c-.39,0-.68-.18-.88-.51l-13.66-22.39c-.35-.57-.53-.52-.53.15Z"/>
    <path class="cls-1" d="m772.95,34.67v9.47c-.01.23.17.41.4.41h28.99c.23,0,.41.18.41.41v11.67c.01.23-.17.41-.4.41h-45.02c-.23,0-.41-.18-.41-.41V.42c.01-.23.19-.41.42-.41h43.94c.23,0,.41.17.41.4v11.7c.01.23-.17.41-.4.41h-27.94c-.23,0-.41.18-.41.41h0v8.85c0,.23.18.41.41.41h24.57c.23,0,.41.19.41.42l-.06,11.24c0,.23-.18.41-.41.41h-24.5c-.23,0-.41.18-.41.41h0Z"/>
    <path class="cls-1" d="m813.24.44c0-.21.17-.38.38-.38l29.24-.05c16.26-.03,29.46,12.18,29.49,27.27h0v2.36c.03,15.09-13.13,27.34-29.39,27.37l-29.24.05c-.21,0-.38-.17-.38-.38h0l-.1-56.24Zm16.13,12.91l.1,30.48c0,.2.16.36.36.36h0l10.98-.04c8.42-.03,15.22-6.5,15.19-14.44,0,0,0,0,0,0v-2.42c-.03-7.94-6.88-14.36-15.29-14.33l-10.98.04c-.2,0-.36.16-.36.36h0Z"/>
    <circle class="cls-1" cx="18.79" cy="40.5" r="18.79"/>
    <path class="cls-1" d="m164.82,56.23l-26.4-15.15c-.32-.19-.43-.6-.24-.92.06-.1.14-.19.24-.24l26.4-15.15c.32-.18.73-.07.91.25.06.1.09.21.09.33v30.3c0,.37-.3.67-.67.67-.11,0-.23-.03-.33-.09Zm-2.22-4.35c.17.1.38.05.48-.12.03-.05.05-.12.05-.18v-22.16c0-.19-.16-.35-.35-.35-.06,0-.13.02-.18.05l-19.08,11.08c-.17.1-.22.31-.12.48.03.05.07.09.12.12l19.08,11.08Z"/>
    <path class="cls-1" d="m209.55,56.41l-26.84-15.45c-.25-.15-.34-.47-.2-.72.05-.08.11-.15.2-.2l26.84-15.45c.25-.15.58-.07.73.19.05.08.07.18.07.27v30.9c0,.29-.23.53-.53.53-.1,0-.19-.02-.27-.07Zm-2.35-4.52c.15.09.35.04.44-.12.03-.05.04-.11.04-.16v-22.22c0-.18-.14-.32-.32-.32-.06,0-.11.01-.16.04l-19.41,11.11c-.15.09-.21.28-.13.43.03.05.07.1.13.13l19.41,11.11Z"/>
    <path class="cls-1" d="m253.78,56.31l-26.91-15.49c-.18-.1-.24-.33-.13-.51.03-.06.08-.1.13-.13l26.91-15.49c.18-.1.4-.04.5.14.03.05.05.11.05.18v30.98c0,.2-.17.37-.37.37-.06,0-.12-.02-.18-.05Zm-2.08-4.36c.16.09.37.04.46-.12.03-.05.04-.11.05-.17v-22.32c0-.19-.16-.34-.34-.34-.06,0-.12.02-.17.05l-19.41,11.16c-.16.1-.21.31-.11.47.03.05.07.08.11.11l19.41,11.16Z"/>
  </g>
</svg>