<?xml version="1.0" encoding="UTF-8" standalone="no"?>
<!DOCTYPE svg PUBLIC "-//W3C//DTD SVG 1.0//EN" "http://www.w3.org/TR/2001/REC-SVG-20010904/DTD/svg10.dtd">
<svg xmlns="http://www.w3.org/2000/svg" version="1.0" viewBox="0.00 0.00 60.00 75.00">
<path fill="#bd6146" d="
  M 26.91 0.00
  L 34.21 0.00
  Q 55.18 3.71 60.00 24.08
  L 60.00 36.04
  Q 57.91 45.53 50.50 52.28
  Q 45.88 56.49 39.54 58.20
  A 0.78 0.76 -8.3 0 0 38.97 58.95
  L 39.01 72.67
  A 1.62 1.62 0.0 0 1 37.66 74.28
  L 33.36 75.00
  L 24.25 75.00
  Q 22.18 74.74 22.14 72.52
  Q 22.04 66.37 21.98 60.24
  A 2.11 2.09 13.4 0 0 20.83 58.39
  C 17.65 56.79 14.43 55.57 11.66 53.17
  C 4.67 47.11 0.69 40.09 0.62 30.72
  C 0.51 14.56 10.79 1.99 26.91 0.00
  Z
  M 52.11 29.72
  A 21.68 21.68 0.0 0 0 30.43 8.04
  A 21.68 21.68 0.0 0 0 8.75 29.72
  A 21.68 21.68 0.0 0 0 30.43 51.40
  A 21.68 21.68 0.0 0 0 52.11 29.72
  Z"
/>
</svg>
