<?xml version="1.0" encoding="UTF-8"?>
<svg id="Layer_2" data-name="Layer 2" xmlns="http://www.w3.org/2000/svg" viewBox="0 0 1077.47 86.89">
  <defs>
    <style>
      .cls-1 {
        fill: #cf5130;
        stroke-width: 0px;
      }
    </style>
  </defs>
  <g id="Layer_1-2" data-name="Layer 1">
    <g>
      <path class="cls-1" d="m495.76,22.99V3.27C495.76,1.09,496.85,0,499.03,0h19.97c1.54,0,2.78,1.24,2.78,2.78h0s.01,79.53.01,79.53c0,2.3-1.15,3.46-3.46,3.47-6.19.02-12.45.01-18.78-.02-1.44,0-2.33-.68-2.68-2.03-.1-.39-.32-.49-.66-.28-9.26,5.55-22.06,3.84-30.74-1.28-11.16-6.58-16.05-20.4-14.5-32.79,1.71-13.62,8.51-22.59,20.4-26.91,7.8-2.83,15.73-2.53,23.8.91.39.17.59.04.59-.39Zm3.78,55.11l-.13,4.51c0,.23.18.42.41.43,0,0,0,0,.01,0h18.74c.31.01.56-.25.56-.56h0V3.15c0-.29-.23-.52-.51-.52h-19.54c-.4,0-.6.2-.6.59v25.27c0,.56-.2.65-.6.26-4.15-3.94-9.73-5.75-16.75-5.43-9.73.44-17.23,4.43-22.48,11.98-5.04,7.24-6.4,17.63-4.46,26.01,2.74,11.85,9.84,19.22,21.29,22.09,7.88,1.97,17.87.55,23.52-5.52.37-.4.55-.33.54.22Z"/>
      <path class="cls-1" d="m558.2,24.08c8.15-4.01,16.6-4.59,25.36-1.72,11.71,3.83,16.42,15.26,16.44,26.74.02,11.15.02,22.22,0,33.2,0,2.31-1.16,3.46-3.46,3.46h-19.71c-1.57,0-2.85-1.29-2.85-2.87h0c.05-10.18.03-20.4-.05-30.67-.04-5.24-2.08-9.4-8.15-8.68-5.25.63-7.93,3.96-8.03,9.99-.15,8.45-.17,18.14-.06,29.06.02,1.73-1.37,3.14-3.1,3.16-.01,0-.02,0-.03,0h-19.51c-2.29,0-3.43-1.13-3.43-3.42V3.34C531.62,1.11,532.73,0,534.96,0h19.79C556.35,0,557.64,1.3,557.64,2.9h0v20.84c.01.41.19.52.56.34Zm-3.21,4.75V3.33c0-.39-.31-.7-.69-.7h-19.57c-.25,0-.45.2-.45.44v79.48c0,.27.22.49.49.49h19.71c.31,0,.47-.16.48-.48.08-8.81.07-17.73-.04-26.75-.1-8.78,3.53-15.81,13.62-14.87,6.01.56,8.1,6.03,8.11,11.48,0,10.99.01,21.08.01,30.28,0,.19.15.34.34.34h19.98c.23,0,.35-.12.34-.35-.06-9.54-.05-19.94.03-31.2.05-7.73-.93-15.09-6.02-20.89-3.06-3.48-6.97-5.69-11.73-6.62-9.42-1.85-17.43-.14-24.03,5.13-.39.31-.58.21-.58-.28Z"/>
      <path class="cls-1" d="m51.16,39.46l-.04-31.47c0-2.47,1.22-3.7,3.69-3.7h19.87c1.61,0,2.91,1.31,2.91,2.92h0v75.83c0,1.49-1.21,2.7-2.7,2.7h0l-17.07.02c-1.17,0-2.28-.52-3.03-1.42l-28.09-33.93c-.17-.21-.25-.18-.25.09l.08,32.07c0,1.75-1.41,3.16-3.16,3.17h-.01l-19.87.02c-2.33,0-3.49-1.16-3.49-3.49V7.17c0-1.59,1.29-2.87,2.88-2.87h17.1c1.05,0,2.04.46,2.71,1.26l28.14,34.01c.22.27.33.23.33-.11Zm2.96-32.44c-.17,0-.3.13-.3.3v39.24c0,.17-.14.3-.3.3-.09,0-.17-.04-.23-.11L20.52,7.13c-.06-.07-.14-.11-.23-.11H2.99c-.17,0-.3.13-.3.3v75.42c0,.17.13.3.3.3h20.47c.17,0,.3-.13.3-.3v-39.3c0-.17.14-.3.3-.3.09,0,.17.04.23.11l32.82,39.68c.06.07.14.11.23.11h17.32c.17,0,.3-.13.3-.3V7.32c0-.17-.13-.3-.3-.3h-20.54Z"/>
      <path class="cls-1" d="m117,82.57c0,1.76-1.42,3.18-3.18,3.18h-20.5c-1.76,0-3.18-1.42-3.18-3.18V7.47c0-1.76,1.42-3.18,3.18-3.18h20.5c1.76,0,3.18,1.42,3.18,3.18h0v75.1Zm-2.73-75.26c0-.16-.13-.29-.29-.29h-20.9c-.16,0-.29.13-.29.29v75.44c0,.16.13.29.29.29h20.9c.16,0,.29-.13.29-.29V7.31Z"/>
      <path class="cls-1" d="m891.89,54.28v27.8c0,2.45-1.22,3.67-3.67,3.67h-18.13c-2.26,0-3.39-1.12-3.39-3.38V7.2c0-1.61,1.3-2.91,2.9-2.91h17.05c1.16,0,2.24.61,2.85,1.61l24.01,39.46c.12.19.24.19.35,0l23.35-39.33c.64-1.08,1.8-1.74,3.05-1.74h16.71c1.77,0,3.21,1.44,3.22,3.21l.27,74.91c0,1.84-1.48,3.33-3.31,3.34,0,0,0,0-.01,0h-18.38c-2.39,0-3.6-1.19-3.61-3.58l-.13-28.29c0-.92-.24-.98-.71-.19l-13.77,23.13c-.53.89-1.49,1.43-2.52,1.43h-8.97c-1.21,0-2.34-.63-2.98-1.67l-13.74-22.42c-.29-.49-.44-.45-.44.12Zm-3.06,28.76c.18,0,.32-.14.32-.32h0l-.03-37.75c0-.18.15-.32.32-.32.11,0,.21.06.27.15l18.76,30.59c.06.09.16.15.27.15h9.28c.11,0,.21-.06.27-.16l18.82-31.56c.09-.15.29-.19.44-.1.09.06.14.15.15.26l.13,38.74c0,.18.14.32.32.32h19.29c.18,0,.32-.14.32-.32l-.28-75.38c0-.18-.14-.32-.32-.32h-17.28c-.11,0-.21.06-.27.16l-25.63,43.16c-.09.15-.28.21-.44.12-.05-.03-.09-.06-.11-.11l-26.29-43.18c-.06-.09-.16-.15-.27-.15h-17.24c-.18,0-.32.14-.32.32v75.38c0,.18.14.32.32.32h19.2Z"/>
      <path class="cls-1" d="m966.51,5.85l25.8,14.72c.16.09.22.29.13.45-.03.06-.08.1-.13.13l-25.8,14.72c-.16.09-.36.03-.45-.13-.03-.05-.04-.1-.04-.15V6.13c0-.18.16-.33.34-.32.05,0,.1.02.15.04Zm2.27,25.73l18.67-10.65c.09-.05.09-.1,0-.15l-18.79-10.71c-.31-.18-.47-.09-.47.27v20.9c0,.45.2.57.59.34Z"/>
      <path class="cls-1" d="m1009.28,5.97l25.27,14.37c.29.17.39.53.22.82-.05.09-.13.17-.22.22l-25.27,14.37c-.29.17-.65.07-.82-.22-.05-.09-.08-.19-.08-.3V6.49c0-.33.27-.6.6-.6.11,0,.21.03.3.08Zm1.71,3.94c-.15-.09-.34-.04-.43.11-.03.05-.05.11-.04.16v21.36c0,.17.13.31.31.31.06,0,.11-.01.16-.04l18.76-10.68c.15-.08.2-.27.12-.42-.03-.05-.07-.09-.12-.12l-18.76-10.68Z"/>
      <path class="cls-1" d="m1051.72,5.92l25.42,14.38c.31.17.42.56.25.87-.06.11-.14.19-.25.25l-25.42,14.38c-.31.18-.7.07-.87-.23-.06-.1-.08-.2-.09-.32V6.47c0-.35.29-.64.64-.64.11,0,.22.03.32.09Zm2.19,4.21c-.15-.08-.34-.03-.42.12-.03.05-.04.1-.04.15v20.92c0,.17.14.31.31.31.05,0,.1-.01.15-.04l18.45-10.46c.15-.08.2-.27.12-.42-.03-.05-.07-.09-.12-.12l-18.45-10.46Z"/>
      <path class="cls-1" d="m224.23,44.84c-1.19-1.47-2.7-2.36-4.51-2.68-6.47-1.13-12.62.16-18.45,3.87-1.46.94-3.34.83-4.22-.85-2.4-4.59-4.66-9.14-6.78-13.65-.67-1.43-.41-2.6.79-3.53,1.53-1.19,3.39-2.23,5.6-3.12,21.35-8.63,54.61-6.45,54.71,24.67.03,10.08.03,21,.01,32.77,0,2.27-1.14,3.41-3.4,3.42-5.51.03-11.39.03-17.65,0-1.97,0-3.15-.87-3.56-2.58-.09-.35-.27-.41-.55-.19-7.61,5.88-23.67,4.73-30.94-1.01-6.81-5.37-9.22-12.52-7.23-21.47,3.39-15.27,24.07-15.19,35.82-14.9.66.01.78-.24.36-.75Zm5.27,31.76l-.1,5.76c0,.45.22.68.67.68h17.98c.44,0,.66-.22.67-.66.04-11.37.03-22.43-.04-33.19-.1-15.66-9.75-24.49-24.96-25.68-11.61-.91-21.8,1.14-30.59,6.15-.39.22-.54.7-.34,1.1l6.46,12.97c.09.19.32.26.51.17.02,0,.03-.02.05-.03,4.27-2.94,9.28-4.54,15.03-4.81,6-.27,12.18,1.66,13.1,8.52.06.47-.15.71-.63.71-12.6-.04-34.89-2.08-37.14,15.17-1.43,10.92,6.04,18.61,16.35,20.24,8.16,1.28,17.8.14,22.47-7.26.35-.56.52-.51.51.16Z"/>
      <path class="cls-1" d="m286.39,24.42c10.15-5.84,24.7-5.25,33.15,3.4.29.29.59.3.91.03,7.09-6.14,15.59-8.37,25.52-6.7,16.16,2.73,20.73,16.36,20.6,30.82-.09,10.49-.1,20.73-.03,30.72.01,1.68-1.34,3.05-3.02,3.06,0,0-.01,0-.02,0h-19.67c-2.25,0-3.37-1.12-3.36-3.37.06-11.23.04-21.66-.05-31.29-.03-2.78-1.23-6.91-4.46-7.43-6.73-1.08-9.12,4.14-9.12,9.71,0,10.05-.01,19.88-.02,29.51,0,1.59-1.29,2.87-2.88,2.87h-19.68c-2.31,0-3.46-1.15-3.45-3.46.02-10.7,0-21.19-.05-31.48-.02-4-2.07-7.59-6.63-7.33-5.86.34-7.46,5.16-7.44,10.13.02,10.21.02,19.79,0,28.75,0,2.26-1.14,3.39-3.4,3.39h-19.22c-2.29,0-3.43-1.13-3.43-3.41V25.19c0-2.34,1.17-3.52,3.52-3.53,6.15-.02,12.5-.01,19.06.02,1.25.01,2.26.97,2.27,2.16,0,.13.03.26.09.37.2.34.47.41.82.21Zm-3.4,5.17v-4.54c0-.49-.23-.73-.72-.73h-18.38c-.39,0-.59.2-.59.59v57.65c0,.32.16.48.48.48h19.78c.24,0,.44-.2.44-.44h0c0-9.27,0-18.8,0-28.58,0-7.8,3.93-14.77,12.84-12.91,5.31,1.1,6.72,6.67,6.7,11.44-.02,8.79-.03,18.78-.02,29.95,0,.36.18.54.55.54h19.88c.15,0,.28-.13.28-.29-.02-9.62-.01-19.25.02-28.9.02-6.34,2.23-12.77,9.73-13,6.9-.21,9.15,5.45,9.17,11.27.02,10.91.02,21.11.01,30.59,0,.18.15.33.33.33h19.77c.38,0,.57-.19.57-.57-.03-10.06-.03-20.93,0-32.61.04-11.28-3.87-22.38-15.92-25.56-9.85-2.6-21.04-.34-27.66,7.71-.24.3-.47.29-.7-.02-8.24-11.36-26.24-11.31-36-2.16-.37.34-.55.26-.55-.24Z"/>
      <path class="cls-1" d="m660.76,61.34c-.14,0-.24.12-.24.26,0,.06.03.11.07.16,3.76,3.75,7.14,7.3,10.13,10.66,1.37,1.55,1.3,3.09-.22,4.63-6.85,6.94-15.99,9.67-25.56,9.75-16.67.14-32.52-7.57-36.79-24.12-3.11-12.08-.69-22.54,7.27-31.38,8.45-9.38,23.38-12.57,35.56-9.63,18.02,4.34,26.56,18.89,24.78,36.63-.24,2.42-2.3,3.07-4.33,3.03-3.35-.07-6.9-.06-10.67.01Zm-30.29-2.05c-.15-.46.01-.69.5-.69h41.49c.37-.01.57-.19.61-.55,1.26-12.15-2.49-23.26-12.86-29.79-12.24-7.71-30.86-6.55-41.58,3.59-11.47,10.84-12.35,29.78-1.7,41.58,8.53,9.44,22.16,12.02,34.68,10.12,7.04-1.07,12.77-3.93,17.2-8.59.2-.21.2-.54,0-.75l-10.23-10.82c-.26-.28-.53-.29-.81-.02-7.48,7.12-23.33,7.43-27.3-4.08Zm24.09,2.01h-19.25c-.64,0-.74.23-.3.69,5.08,5.36,14.25,4.46,19.91.44,1.07-.75.95-1.13-.36-1.13Z"/>
      <path class="cls-1" d="m732.68,62.25c3.53,3.33,6.92,6.91,10.15,10.74.64.77.73,1.86.22,2.72-3.31,5.63-12.43,9.3-18.54,10.33-18.14,3.08-37.41-3.07-44.01-21.16-6.51-17.87,2.89-36.79,20.79-42.37,24.8-7.73,49.85,8.34,46.06,36.04-.23,1.72-1.27,2.61-3.1,2.66-3.33.1-7.06.13-11.19.1-.92,0-1.05.31-.38.94Zm-29.39-.39c-1.95-2.17-1.47-3.26,1.46-3.26h39.45c.29,0,.53-.22.57-.52,1.27-11.91-2.41-23-12.48-29.55-11.91-7.74-29.79-7-40.88,2.36-10.7,9.03-13.2,24.7-6.77,36.82,8,15.06,26.74,18.9,42.4,15.04,5.15-1.27,9.64-3.87,13.48-7.8.18-.19.19-.49.01-.68l-10.21-10.81c-.29-.31-.59-.32-.9-.03-4.34,4.03-9.85,5.57-16.54,4.63-3.07-.43-5.64-1.8-7.71-4.11-.64-.71-1.27-1.4-1.88-2.09Zm23.83-.63l-20.48.14s-.03.01-.03.03v.06c.01,2.22,4.56,4,10.15,3.96h.28c5.59-.04,10.12-1.87,10.11-4.1h0v-.06s-.01-.03-.03-.03Z"/>
      <path class="cls-1" d="m779.87,24.74c16.23-9.27,38.58-3.27,42.04,16.84.58,3.37.85,6.9.81,10.6-.11,9.87-.13,19.9-.06,30.1.01,2.31-1.14,3.47-3.45,3.48h-19.19c-2.25,0-3.38-1.13-3.39-3.38-.03-8.77-.03-17.8.02-27.11.03-5.3-.02-11.97-7.35-11.8-7.21.16-9.09,5.8-9.06,12.04.06,9.62.06,18.63,0,27.03-.02,2.14-1.1,3.21-3.24,3.21h-19.26c-2.32,0-3.48-1.15-3.48-3.48V24.6c0-1.59,1.28-2.88,2.87-2.9,6.08-.07,12.5-.08,19.26-.01,1.83.01,2.76.9,2.79,2.65,0,.52.24.65.69.4Zm-3.21,5.04l-.04-4.8c0-.44-.22-.66-.67-.66h-18.48c-.34,0-.51.17-.51.51v57.68c-.01.35.17.53.52.53h19.54c.33,0,.59-.26.59-.59-.03-9.5-.02-18.9.02-28.19.03-7.38,3.86-13.58,11.79-13.4,6.38.14,9.63,3.67,9.75,10.59.15,8.63.17,19,.06,31.09,0,.28.22.5.49.5h19.83c.24,0,.43-.19.43-.43.03-11.85.02-23.32-.03-34.42-.07-16.91-11.49-26.53-28.05-24.68-6.03.67-10.9,2.85-14.59,6.54-.43.42-.64.33-.65-.27Z"/>
      <path class="cls-1" d="m159.82,64.55c-.07.09-.06.22.02.29.04.03.08.05.13.05h21.48c1.72,0,3.11,1.38,3.11,3.09v14.91c0,1.6-1.3,2.9-2.9,2.9h-53.84c-1.62,0-2.93-1.31-2.93-2.93,0,0,0,0,0-.01v-12c.01-.67.25-1.31.69-1.81l22.92-26.19c.09-.1.09-.26-.01-.35-.05-.04-.11-.07-.18-.07h-19.04c-2.42,0-3.63-1.21-3.64-3.63v-13.51c0-2.43,1.21-3.64,3.63-3.64h51.31c1.62,0,2.94,1.32,2.94,2.95h0v11.66c0,.79-.3,1.56-.82,2.16l-22.87,26.13Zm-5.45,3.01c-.18,0-.33-.14-.33-.33,0-.08.03-.16.08-.22l26.6-30.41c.05-.06.08-.13.08-.21v-11.74c0-.18-.15-.33-.33-.33h-51.85c-.18,0-.33.15-.33.33l.05,14.78c0,.18.15.33.33.33h25.34c.18,0,.33.15.33.34,0,.08-.03.16-.08.22l-26.63,30.44c-.05.06-.08.13-.08.21v11.74c-.01.18.14.33.32.33h53.74c.18.01.33-.14.33-.32h0v-14.83c0-.18-.15-.33-.33-.33h-27.24Z"/>
      <path class="cls-1" d="m417.99,83.03c-9.32,5.48-23.39,5.25-32.31-2.07-7.35-6.05-9.39-15.59-9.4-24.75,0-10.43,0-20.84.02-31.22,0-2.18,1.1-3.27,3.28-3.27h19.92c1.55,0,2.81,1.26,2.81,2.81,0,9.18,0,18.86,0,29.03.01,5.74,1.51,11.83,9.11,9.97,5.3-1.31,6.2-6.79,6.18-11.63-.05-9.71-.06-18.79-.02-27.22.01-1.64,1.34-2.96,2.97-2.96h19.84c2.13,0,3.19,1.07,3.19,3.2v57.86c0,1.6-1.29,2.9-2.89,2.91-5.41.03-11.66.04-18.73.02-1.71,0-2.81-.82-3.32-2.43-.11-.36-.33-.44-.65-.25Zm3.3-5.46l-.05,4.95c0,.28.21.5.49.51,0,0,0,0,.01,0h18.75c.26,0,.47-.21.47-.47h0V24.79c0-.25-.2-.45-.45-.45h-19.71c-.35,0-.52.17-.53.52-.03,9.05-.02,18.28.01,27.69.02,6.38-2.3,12.92-9.43,13.81-9.54,1.19-11.24-6.19-11.2-14.19.05-9.34.06-18.47.04-27.4,0-.24-.19-.43-.43-.43h-19.71c-.36,0-.54.18-.54.54,0,11.21,0,22.21.01,32.98.02,16.6,9.82,27.36,26.96,26.19,5.83-.4,10.78-2.62,14.85-6.67.31-.31.47-.25.46.19Z"/>
      <path class="cls-1" d="m630.37,47.76c-.06,0-.1-.04-.1-.1v-.07c0-5.23,5.18-9.48,11.6-9.49h.22c6.42-.01,11.63,4.22,11.64,9.45h0v.07c0,.06-.04.1-.1.1l-23.26.04Zm3.89-2.71l15.56.02c.08,0,.15-.07.15-.15h0v-.03c0-2.24-3.49-4.06-7.8-4.07h-.26c-4.31,0-7.8,1.81-7.8,4.05v.03c0,.08.07.15.15.15h0Z"/>
      <path class="cls-1" d="m702.07,47.76c-.06,0-.11-.05-.11-.11h0v-.06c0-5.24,5.17-9.5,11.56-9.51h.24c6.4-.01,11.59,4.23,11.6,9.47h0v.06c0,.06-.05.11-.11.11l-23.18.04Zm3.94-2.74l15.42.02c.07,0,.12-.05.12-.12v-.05c0-2.21-3.44-4.01-7.69-4.02h-.28c-4.25,0-7.69,1.79-7.69,4v.05c0,.07.05.12.12.12h0Z"/>
      <path class="cls-1" d="m486.56,67.86c-6.85,0-12.4-6.34-12.4-14.16s5.55-14.16,12.4-14.16,12.4,6.34,12.4,14.16h0c0,7.82-5.55,14.16-12.4,14.16h0Zm.04-2.68c5.37-.02,9.7-5.18,9.68-11.53-.02-6.35-4.39-11.48-9.76-11.47-5.37.02-9.7,5.18-9.68,11.53.02,6.35,4.39,11.48,9.76,11.47Z"/>
      <path class="cls-1" d="m214.76,70.69c-3.87-.79-6.16-5.29-3.87-8.73,2.77-4.15,12.15-2.86,16.45-2.95.45-.01.67.2.67.65,0,2.42.35,4.82-1.21,6.92-2.81,3.8-6.83,5.17-12.04,4.11Zm-1.96-6.54c-1.14,6.3,12.08,5.6,12.56-1.78.02-.4-.17-.61-.57-.63-2.48-.09-11.41-.83-11.99,2.41Z"/>
    </g>
  </g>
</svg>