<?xml version="1.0" encoding="UTF-8"?>
<svg id="Layer_2" data-name="Layer 2" xmlns="http://www.w3.org/2000/svg" viewBox="0 0 524.03 467.8">
  <defs>
    <style>
      .cls-1 {
        fill: #0d0d0d;
        isolation: isolate;
        opacity: .2;
      }

      .cls-1, .cls-2, .cls-3, .cls-4, .cls-5, .cls-6, .cls-7 {
        stroke-width: 0px;
      }

      .cls-8 {
        fill: none;
        stroke: #000;
        stroke-linecap: round;
        stroke-linejoin: round;
        stroke-width: 4px;
      }

      .cls-3 {
        fill: #606060;
      }

      .cls-4 {
        fill: #233746;
      }

      .cls-5 {
        fill: #c99b8d;
      }

      .cls-6 {
        fill: #cd6242;
      }

      .cls-7 {
        fill: #e5e5e5;
      }
    </style>
  </defs>
  <g id="Layer_1-2" data-name="Layer 1">
    <g>
      <path class="cls-4" d="m7.54,4.76c-2.13,1.71-3.89,3.8-5.17,6.15C1.09,13.27.31,15.83.08,18.47c-.24,2.64.08,5.3.93,7.83.85,2.52,2.21,4.86,4.01,6.89l84.67,95.31,32.36-25.99L37.46,7.16c-1.8-2.02-4-3.69-6.47-4.91-2.48-1.22-5.19-1.96-7.96-2.18-2.78-.22-5.58.08-8.24.88-2.65.81-5.12,2.1-7.25,3.81h0Z"/>
      <path class="cls-6" d="m7.76,36.25l9.11,10.26,32.4-25.98-9.11-10.27L7.76,36.25Z"/>
      <path class="cls-3" d="m122.06,102.46l-32.38,26.04.24.08,19.35,7.96,17.84-14.35-4.94-19.45-.1-.29Z"/>
      <path class="cls-2" d="m133.41,146.45l-6.31-24.26-17.84,14.35,24.14,9.91Z"/>
      <path class="cls-8" d="m25.56,39.58l72.3,81.47"/>
      <path class="cls-8" d="m40.66,27.49l72.32,81.42"/>
    </g>
    <g>
      <path class="cls-5" d="m228.11,64.56l-82.51,132.93c-11.82,19.02-15.18,42.07-9.41,63.68l38.99,145.91c11.63,43.6,56.48,69.63,100.18,57.91l186.92-49.85c43.7-11.62,69.64-56.47,58.02-100.18l-39-145.9c-5.76-21.61-20.27-39.96-39.96-50.52l-137.74-74.16c-26.6-14.21-59.64-5.47-75.49,20.18Z"/>
      <path class="cls-6" d="m268.64,65.04c7.49-2.02,15.47-1.06,22.38,2.59l137.74,74.15c13.25,7.2,22.96,19.5,26.89,34.1l39,146c7.88,29.58-9.7,59.84-39.19,67.81l-187.01,49.75c-29.58,7.88-59.84-9.7-67.81-39.18l-38.9-145.91c-3.85-14.6-1.54-30.06,6.34-42.93l82.41-132.94c4.13-6.62,10.56-11.43,18.15-13.44Zm-6.82-25.55c-14.02,3.74-26.03,12.67-33.71,25.07l-82.51,132.93c-11.82,19.02-15.18,42.07-9.41,63.68l38.99,145.91c11.63,43.6,56.48,69.63,100.18,57.91l186.92-49.85c43.7-11.62,69.64-56.47,58.02-100.18l-39-145.9c-5.76-21.61-20.27-39.96-39.96-50.52l-137.74-74.16c-12.87-6.91-27.75-8.64-41.78-4.89Z"/>
      <path class="cls-1" d="m389.22,191.15l-194.24,51.83,49.43,185.23,194.24-51.82-49.43-185.24Z"/>
      <path class="cls-7" d="m401.23,171.65l-194.24,51.82,49.42,185.24,194.24-51.82-49.42-185.24Z"/>
      <path class="cls-6" d="m337.03,321.4l-201.9-64.07,39.96,149.65c11.62,43.61,56.47,69.64,100.18,57.92l186.82-49.85c43.7-11.62,69.64-56.48,58.01-100.09l-39.95-149.65-143.12,156.09Z"/>
      <path class="cls-6" d="m325.02,276.45l-140.14,153.01c19.12,30.35,55.71,44.76,90.39,35.54l186.82-49.95c34.67-9.22,59.26-39.96,60.7-75.79l-197.77-62.81Z"/>
      <path class="cls-5" d="m318.78,378.74l62.62-16.71c8.84-2.4,17.87,2.88,20.27,11.72,2.4,8.83-2.88,17.86-11.72,20.26l-62.62,16.72c-8.84,2.4-17.87-2.89-20.27-11.72-2.4-8.94,2.88-17.96,11.72-20.27Z"/>
      <path class="cls-8" d="m330.69,392.57l47.26-12.58"/>
      <path class="cls-8" d="m184.79,430.13l110.07-121.6"/>
      <path class="cls-8" d="m366.81,289.7l155.22,49.18"/>
      <path class="cls-8" d="m163.66,263.48l-26.42-7.97"/>
      <path class="cls-8" d="m458.73,185.68l19.59-20.08"/>
    </g>
  </g>
</svg>