<?xml version="1.0" encoding="UTF-8" standalone="no"?>
<!DOCTYPE svg PUBLIC "-//W3C//DTD SVG 1.0//EN" "http://www.w3.org/TR/2001/REC-SVG-20010904/DTD/svg10.dtd">
<svg xmlns="http://www.w3.org/2000/svg" version="1.0" viewBox="0.00 0.00 2427.00 682.00">
<g stroke-width="2.00" fill="none" stroke-linecap="butt">
<path stroke="#784d44" vector-effect="non-scaling-stroke" d="
  M 1955.62 447.52
  Q 1967.15 433.32 1969.97 412.74
  Q 1971.81 399.35 1969.75 383.77
  Q 1966.95 362.65 1953.16 347.80"
/>
<path stroke="#784d44" vector-effect="non-scaling-stroke" d="
  M 2023.88 349.58
  Q 2023.13 350.22 2023.14 349.24
  L 2023.15 336.83
  Q 2023.15 336.25 2022.58 336.25
  L 2003.27 336.25
  Q 2002.67 336.25 2002.67 336.86
  L 2002.66 461.05
  Q 2002.66 461.69 2003.30 461.69
  L 2022.81 461.71
  A 0.34 0.33 90.0 0 0 2023.14 461.37
  L 2023.14 368.72
  Q 2023.14 368.02 2023.69 367.58
  C 2035.92 358.02 2051.17 350.18 2067.23 353.82
  Q 2079.24 356.54 2082.01 369.11
  Q 2083.93 377.86 2083.95 390.76
  Q 2083.99 426.48 2083.96 461.12
  A 0.56 0.56 0.0 0 0 2084.52 461.69
  L 2104.18 461.70
  A 0.26 0.26 0.0 0 0 2104.44 461.44
  Q 2104.47 424.08 2104.48 382.34
  C 2104.48 363.68 2100.22 343.06 2080.80 335.66
  C 2060.62 327.98 2039.79 336.06 2023.88 349.58"
/>
<path stroke="#784d44" vector-effect="non-scaling-stroke" d="
  M 1947.08 421.02
  Q 1953.13 396.92 1946.14 373.56"
/>
</g>
<path fill="#233746" d="
  M 1628.12 0.00
  L 1630.75 0.00
  Q 1633.82 0.78 1636.52 3.48
  Q 1666.46 33.50 1698.58 65.60
  Q 1702.11 69.12 1702.73 71.21
  C 1703.75 74.66 1702.43 77.77 1699.95 80.24
  Q 1679.03 101.10 1659.57 120.60
  Q 1659.13 121.04 1658.51 121.04
  L 1636.09 121.04
  Q 1635.35 121.04 1635.87 120.51
  L 1682.33 74.05
  Q 1682.78 73.60 1682.33 73.14
  L 1629.67 20.47
  A 0.35 0.35 0.0 0 0 1629.17 20.47
  L 1576.35 73.30
  A 0.40 0.40 0.0 0 0 1576.35 73.86
  L 1623.19 120.68
  A 0.21 0.20 -22.2 0 1 1623.04 121.03
  L 1600.30 121.04
  Q 1599.75 121.04 1599.36 120.65
  Q 1580.85 102.13 1559.08 80.42
  C 1554.34 75.69 1554.85 71.03 1559.40 66.47
  Q 1591.56 34.28 1624.20 1.67
  Q 1625.07 0.81 1628.12 0.00
  Z"
/>
<circle fill="#cd6242" cx="184.52" cy="60.57" r="5.67"/>
<path fill="#cd6242" d="
  M 0.00 61.60
  L 0.00 59.52
  Q 1.38 55.36 5.00 54.98
  C 13.78 54.06 13.14 67.69 4.59 66.10
  Q 1.27 65.49 0.00 61.60
  Z"
/>
<circle fill="#cd6242" cx="95.12" cy="60.56" r="5.67"/>
<circle fill="#cd6242" cx="273.90" cy="60.57" r="5.67"/>
<circle fill="#cd6242" cx="363.31" cy="60.58" r="5.67"/>
<circle fill="#cd6242" cx="452.71" cy="60.57" r="5.67"/>
<path fill="#171617" d="
  M 1502.83 278.72
  C 1466.55 286.55 1425.78 275.32 1405.24 242.76
  C 1393.91 224.82 1390.95 202.51 1395.66 182.00
  C 1402.25 153.35 1424.82 131.86 1453.43 124.23
  C 1493.21 113.61 1540.33 126.51 1559.63 165.90
  C 1567.73 182.44 1569.52 201.81 1565.38 219.68
  C 1558.21 250.66 1533.29 272.15 1502.83 278.72
  Z
  M 1456.79 126.34
  C 1423.16 134.57 1398.54 160.97 1396.64 196.04
  C 1394.26 240.04 1425.48 272.40 1468.04 277.36
  C 1515.68 282.92 1560.44 256.53 1564.38 206.43
  C 1566.15 183.88 1558.03 161.78 1541.64 146.35
  Q 1520.85 126.77 1490.03 124.08
  Q 1472.35 122.54 1456.79 126.34
  Z"
/>
<path fill="#171617" d="
  M 628.72 164.01
  L 584.62 164.01
  A 0.55 0.55 0.0 0 1 584.07 163.46
  L 584.09 124.15
  A 0.55 0.55 0.0 0 1 584.64 123.60
  L 725.99 123.61
  A 0.55 0.55 0.0 0 1 726.54 124.16
  L 726.54 163.48
  A 0.55 0.55 0.0 0 1 725.99 164.03
  L 681.90 163.99
  A 0.55 0.55 0.0 0 0 681.35 164.54
  L 681.35 277.53
  A 0.55 0.55 0.0 0 1 680.80 278.08
  L 629.82 278.08
  A 0.55 0.55 0.0 0 1 629.27 277.53
  L 629.27 164.56
  A 0.55 0.55 0.0 0 0 628.72 164.01
  Z
  M 678.40 165.53
  C 678.40 163.20 679.44 161.07 682.11 161.05
  Q 702.34 160.90 723.17 161.07
  Q 723.60 161.07 723.60 160.64
  L 723.55 127.26
  A 0.66 0.66 0.0 0 0 722.89 126.60
  L 587.48 126.58
  Q 587.04 126.58 587.04 127.02
  L 587.02 160.49
  Q 587.02 160.99 587.52 160.99
  Q 606.23 161.00 625.00 161.00
  C 628.94 161.01 632.25 160.73 632.25 165.50
  Q 632.28 220.12 632.26 274.80
  A 0.30 0.30 0.0 0 0 632.56 275.10
  L 678.09 275.10
  A 0.25 0.24 -90.0 0 0 678.33 274.85
  Q 678.33 218.85 678.40 165.53
  Z"
/>
<path fill="#171617" d="
  M 888.32 276.24
  L 954.65 124.28
  A 0.99 0.98 -78.0 0 1 955.55 123.69
  L 1005.49 123.68
  A 0.89 0.89 0.0 0 1 1006.31 124.22
  L 1073.32 277.67
  A 0.29 0.29 0.0 0 1 1073.06 278.08
  L 1020.20 278.08
  Q 1019.61 278.08 1019.40 277.53
  L 1009.48 251.74
  A 0.82 0.81 79.5 0 0 1008.72 251.21
  L 951.54 251.20
  Q 950.77 251.20 950.50 251.92
  L 940.69 277.46
  Q 940.46 278.08 939.79 278.08
  L 833.47 278.08
  Q 832.91 278.08 832.60 277.61
  L 807.07 239.67
  A 1.00 0.98 -16.2 0 0 806.24 239.23
  L 793.39 239.25
  Q 792.78 239.25 792.78 239.86
  L 792.79 277.77
  A 0.31 0.31 0.0 0 1 792.48 278.08
  L 741.28 278.08
  Q 740.74 278.08 740.74 277.53
  L 740.74 124.27
  Q 740.74 123.71 741.30 123.71
  Q 786.38 123.58 818.37 123.76
  C 848.89 123.93 879.08 139.00 884.29 172.07
  C 888.07 196.08 878.72 218.58 856.72 230.02
  A 0.73 0.72 -30.9 0 0 856.45 231.07
  L 887.21 276.35
  Q 887.86 277.30 888.32 276.24
  Z
  M 790.99 237.28
  A 2.32 2.32 0.0 0 1 792.91 236.26
  L 805.98 236.25
  A 4.35 4.34 -17.0 0 1 809.58 238.16
  L 833.97 274.31
  A 1.82 1.81 -17.1 0 0 835.47 275.10
  L 881.79 275.09
  A 0.56 0.55 -17.2 0 0 882.25 274.22
  Q 868.03 253.44 853.96 232.54
  C 851.18 228.40 857.14 226.64 859.46 225.11
  Q 879.60 211.82 881.73 188.26
  Q 884.62 156.34 860.83 139.08
  C 849.14 130.60 832.78 126.79 818.54 126.73
  Q 781.93 126.57 744.05 126.69
  Q 743.73 126.69 743.73 127.01
  L 743.73 274.54
  Q 743.73 275.10 744.29 275.10
  L 789.22 275.10
  Q 789.80 275.10 789.80 274.52
  L 789.81 239.63
  Q 789.81 239.04 790.13 238.56
  L 790.99 237.28
  Z
  M 1012.96 252.81
  Q 1017.03 262.92 1021.36 274.50
  Q 1021.58 275.10 1022.21 275.10
  L 1068.54 275.10
  A 0.29 0.29 0.0 0 0 1068.81 274.70
  L 1004.33 127.05
  Q 1004.15 126.64 1003.70 126.64
  L 957.07 126.69
  A 0.48 0.47 10.8 0 0 956.65 126.97
  L 892.29 274.45
  A 0.47 0.46 -78.2 0 0 892.71 275.10
  L 938.06 275.10
  A 0.60 0.59 -79.0 0 0 938.61 274.72
  L 947.79 250.81
  A 3.98 3.98 0.0 0 1 951.51 248.25
  Q 980.92 248.20 1007.50 248.24
  C 1011.73 248.24 1011.68 249.63 1012.96 252.81
  Z"
/>
<path fill="#171617" d="
  M 1799.42 211.06
  Q 1798.83 210.11 1798.83 211.23
  L 1798.82 277.69
  Q 1798.82 278.08 1798.43 278.08
  L 1752.03 278.08
  Q 1751.48 278.08 1751.48 277.53
  L 1751.50 124.25
  A 0.50 0.50 0.0 0 1 1752.00 123.75
  L 1793.34 123.66
  A 1.59 1.56 73.7 0 1 1794.70 124.42
  Q 1819.21 164.44 1843.73 204.66
  Q 1843.99 205.08 1844.38 205.35
  A 0.38 0.38 0.0 0 0 1844.92 205.23
  L 1893.11 124.24
  A 1.17 1.16 -74.5 0 1 1894.11 123.67
  L 1935.54 123.71
  A 0.58 0.58 0.0 0 1 1936.12 124.29
  L 1936.90 277.09
  Q 1936.91 278.08 1935.92 278.08
  L 1890.17 278.08
  Q 1889.27 278.08 1889.27 277.18
  L 1888.89 209.19
  Q 1888.89 207.76 1888.15 208.99
  L 1855.89 263.33
  A 1.83 1.82 15.3 0 1 1854.32 264.22
  L 1833.27 264.22
  A 1.70 1.69 73.7 0 1 1831.84 263.43
  L 1799.42 211.06
  Z
  M 1796.16 211.09
  C 1797.08 207.53 1800.15 206.69 1802.28 210.13
  Q 1817.86 235.29 1833.65 260.75
  Q 1833.96 261.24 1834.54 261.24
  L 1852.74 261.22
  A 1.70 1.69 15.2 0 0 1854.20 260.39
  Q 1870.03 233.77 1885.38 207.90
  Q 1886.54 205.95 1888.83 205.33
  A 1.60 1.60 0.0 0 1 1889.74 205.36
  Q 1891.85 206.05 1891.87 209.50
  Q 1892.01 241.98 1892.30 274.45
  Q 1892.31 275.10 1892.96 275.10
  L 1933.36 275.10
  A 0.34 0.34 0.0 0 0 1933.70 274.76
  C 1933.44 225.58 1933.92 176.33 1933.25 127.14
  A 0.50 0.50 0.0 0 0 1932.75 126.65
  L 1895.72 126.70
  A 1.13 1.10 14.7 0 0 1894.75 127.25
  L 1847.31 206.92
  A 3.26 3.26 0.0 0 1 1841.73 206.95
  L 1792.95 127.15
  Q 1792.65 126.67 1792.09 126.66
  L 1754.92 126.64
  A 0.44 0.44 0.0 0 0 1754.48 127.08
  L 1754.50 274.83
  Q 1754.50 275.10 1754.77 275.10
  L 1795.52 275.10
  A 0.33 0.32 90.0 0 0 1795.84 274.77
  Q 1795.85 244.13 1795.83 213.76
  Q 1795.83 212.37 1796.16 211.09
  Z"
/>
<path fill="#171617" d="
  M 1132.53 208.80
  L 1132.59 277.76
  A 0.31 0.31 0.0 0 1 1132.28 278.07
  L 1082.29 278.08
  A 0.31 0.31 0.0 0 1 1081.98 277.77
  L 1081.98 124.00
  A 0.31 0.31 0.0 0 1 1082.29 123.69
  L 1124.53 123.68
  A 0.31 0.31 0.0 0 1 1124.77 123.79
  L 1182.40 193.15
  A 0.31 0.31 0.0 0 0 1182.95 192.95
  L 1182.97 124.04
  A 0.31 0.31 0.0 0 1 1183.28 123.73
  L 1233.18 123.68
  A 0.31 0.31 0.0 0 1 1233.49 123.99
  L 1233.49 277.77
  A 0.31 0.31 0.0 0 1 1233.18 278.08
  L 1190.98 278.08
  A 0.31 0.31 0.0 0 1 1190.74 277.97
  L 1133.08 208.60
  A 0.31 0.31 0.0 0 0 1132.53 208.80
  Z
  M 1191.66 274.45
  Q 1192.19 275.10 1193.03 275.10
  L 1229.95 275.10
  Q 1230.51 275.10 1230.51 274.54
  L 1230.51 127.26
  A 0.62 0.62 0.0 0 0 1229.89 126.64
  L 1186.44 126.68
  Q 1185.79 126.68 1185.79 127.32
  Q 1185.95 158.75 1185.93 192.15
  Q 1185.93 193.64 1185.41 194.86
  A 2.50 2.50 0.0 0 1 1181.82 196.04
  C 1179.68 194.76 1178.45 193.02 1176.84 191.08
  Q 1150.30 159.10 1123.91 127.34
  A 1.87 1.84 69.7 0 0 1122.49 126.67
  L 1085.54 126.64
  Q 1084.96 126.64 1084.96 127.21
  L 1084.96 274.53
  Q 1084.96 275.10 1085.53 275.10
  L 1129.19 275.09
  A 0.46 0.46 0.0 0 0 1129.65 274.63
  Q 1129.58 242.56 1129.58 210.37
  Q 1129.58 208.52 1130.07 206.83
  A 2.10 2.09 14.4 0 1 1132.53 205.38
  Q 1134.68 205.86 1136.17 207.67
  Q 1165.11 242.61 1191.66 274.45
  Z"
/>
<path fill="#171617" d="
  M 1311.24 163.26
  L 1311.27 188.97
  A 0.49 0.49 0.0 0 0 1311.76 189.46
  L 1375.18 189.42
  A 0.49 0.49 0.0 0 1 1375.67 189.91
  L 1375.67 228.02
  A 0.49 0.49 0.0 0 1 1375.18 228.51
  L 1311.74 228.49
  A 0.49 0.49 0.0 0 0 1311.25 228.98
  L 1311.27 277.59
  A 0.49 0.49 0.0 0 1 1310.78 278.08
  L 1259.67 278.08
  A 0.49 0.49 0.0 0 1 1259.18 277.59
  L 1259.40 124.26
  A 0.49 0.49 0.0 0 1 1259.89 123.77
  L 1384.20 123.73
  A 0.49 0.49 0.0 0 1 1384.69 124.22
  L 1384.71 162.32
  A 0.49 0.49 0.0 0 1 1384.22 162.81
  L 1311.73 162.77
  A 0.49 0.49 0.0 0 0 1311.24 163.26
  Z
  M 1309.49 191.80
  Q 1308.29 190.65 1308.29 188.88
  Q 1308.22 175.82 1308.29 164.29
  Q 1308.32 159.81 1312.79 159.81
  L 1381.08 159.84
  A 0.67 0.66 90.0 0 0 1381.74 159.17
  L 1381.73 127.24
  Q 1381.73 126.75 1381.24 126.75
  L 1262.51 126.69
  Q 1262.10 126.69 1262.06 127.11
  C 1261.51 133.76 1262.06 140.45 1262.04 147.07
  Q 1261.89 210.79 1262.24 274.65
  A 0.45 0.45 0.0 0 0 1262.69 275.10
  L 1307.71 275.10
  Q 1308.28 275.10 1308.28 274.54
  L 1308.26 230.00
  Q 1308.26 225.51 1312.75 225.51
  L 1372.43 225.52
  Q 1372.73 225.52 1372.73 225.21
  L 1372.69 193.02
  A 0.63 0.62 0.0 0 0 1372.06 192.40
  Q 1342.12 192.44 1312.75 192.40
  Q 1311.51 192.40 1310.31 192.21
  Q 1309.84 192.13 1309.49 191.80
  Z"
/>
<path fill="#171617" d="
  M 1703.17 230.06
  Q 1702.51 230.40 1702.93 231.01
  L 1734.51 277.54
  A 0.35 0.34 -17.0 0 1 1734.22 278.08
  L 1679.82 278.08
  A 0.91 0.91 0.0 0 1 1679.06 277.67
  L 1653.77 239.93
  A 1.59 1.56 73.0 0 0 1652.46 239.22
  L 1639.78 239.22
  A 0.50 0.50 0.0 0 0 1639.28 239.72
  L 1639.29 277.52
  Q 1639.29 278.08 1638.73 278.08
  L 1587.79 278.08
  A 0.54 0.54 0.0 0 1 1587.25 277.54
  L 1587.28 124.22
  Q 1587.28 123.69 1587.81 123.69
  Q 1625.45 123.67 1664.25 123.68
  Q 1671.01 123.68 1679.05 125.05
  C 1705.04 129.46 1726.00 144.25 1730.65 171.20
  C 1734.83 195.45 1725.48 218.47 1703.17 230.06
  Z
  M 1655.95 237.97
  L 1680.73 274.75
  Q 1680.96 275.09 1681.38 275.09
  L 1728.60 275.10
  A 0.36 0.36 0.0 0 0 1728.90 274.54
  Q 1715.79 255.29 1702.12 235.05
  C 1700.15 232.14 1698.18 229.48 1702.32 227.21
  C 1723.12 215.82 1731.60 194.75 1727.74 171.79
  C 1722.49 140.53 1693.53 126.86 1664.61 126.72
  Q 1628.75 126.56 1590.65 126.68
  A 0.53 0.53 0.0 0 0 1590.12 127.21
  L 1590.18 274.64
  A 0.46 0.46 0.0 0 0 1590.64 275.10
  L 1635.73 275.10
  Q 1636.30 275.10 1636.30 274.52
  L 1636.29 239.73
  Q 1636.29 236.26 1639.77 236.25
  L 1652.71 236.24
  A 3.90 3.90 0.0 0 1 1655.95 237.97
  Z"
/>
<path fill="#cd6242" d="
  M 0.00 137.86
  L 0.00 135.79
  Q 2.06 130.05 7.25 131.42
  C 14.13 133.24 11.83 144.09 4.24 142.45
  Q 1.04 141.77 0.00 137.86
  Z"
/>
<circle fill="#cd6242" cx="95.12" cy="136.94" r="5.67"/>
<circle fill="#cd6242" cx="184.52" cy="136.93" r="5.67"/>
<circle fill="#cd6242" cx="273.90" cy="136.95" r="5.67"/>
<circle fill="#cd6242" cx="363.31" cy="136.95" r="5.67"/>
<circle fill="#cd6242" cx="452.71" cy="136.93" r="5.67"/>
<path fill="#171617" d="
  M 1445.37 216.26
  C 1439.75 199.27 1443.64 176.12 1459.96 165.83
  Q 1470.27 159.34 1482.20 159.88
  C 1498.84 160.63 1511.82 171.19 1516.28 187.41
  C 1520.57 203.05 1517.56 222.08 1504.78 233.12
  C 1493.82 242.59 1477.76 244.48 1464.44 238.36
  Q 1450.57 231.99 1445.37 216.26
  Z
  M 1446.15 196.69
  C 1445.31 207.00 1447.39 217.74 1453.63 225.97
  C 1467.03 243.64 1494.61 243.20 1507.74 225.57
  C 1513.41 217.95 1515.41 208.52 1515.12 199.05
  C 1514.62 183.03 1506.40 168.88 1490.68 164.24
  Q 1480.75 161.32 1470.58 164.19
  C 1455.62 168.41 1447.38 181.58 1446.15 196.69
  Z"
/>
<path fill="#171617" d="
  M 789.81 164.64
  A 3.83 3.83 0.0 0 1 793.64 160.81
  L 814.51 160.81
  A 21.12 19.73 0.0 0 1 835.63 180.54
  L 835.63 183.32
  A 21.12 19.73 0.0 0 1 814.51 203.05
  L 793.64 203.05
  A 3.83 3.83 0.0 0 1 789.81 199.22
  L 789.81 164.64
  Z
  M 792.75 164.12
  L 792.81 199.76
  A 0.37 0.37 0.0 0 0 793.18 200.13
  L 814.47 200.10
  A 18.24 16.73 -0.1 0 0 832.68 183.34
  L 832.68 180.42
  A 18.24 16.73 -0.1 0 0 814.41 163.72
  L 793.12 163.75
  A 0.37 0.37 0.0 0 0 792.75 164.12
  Z"
/>
<path fill="#171617" d="
  M 1636.21 165.11
  A 4.36 4.36 0.0 0 1 1640.58 160.76
  L 1660.62 160.79
  A 21.58 19.79 0.1 0 1 1682.16 180.62
  L 1682.16 183.46
  A 21.58 19.79 0.1 0 1 1660.54 203.21
  L 1640.50 203.18
  A 4.36 4.36 0.0 0 1 1636.15 198.81
  L 1636.21 165.11
  Z
  M 1639.05 164.75
  L 1639.23 199.05
  A 1.17 1.17 0.0 0 0 1640.41 200.22
  L 1660.47 200.11
  A 18.77 16.61 -0.3 0 0 1679.15 183.41
  L 1679.13 179.99
  A 18.77 16.61 -0.3 0 0 1660.27 163.47
  L 1640.21 163.58
  A 1.17 1.17 0.0 0 0 1639.05 164.75
  Z"
/>
<path fill="#171617" d="
  M 962.51 212.49
  L 977.11 174.59
  A 3.16 3.16 0.0 0 1 983.01 174.59
  L 997.61 212.49
  A 3.16 3.16 0.0 0 1 994.66 216.79
  L 965.46 216.79
  A 3.16 3.16 0.0 0 1 962.51 212.49
  Z
  M 965.32 213.32
  A 0.35 0.35 0.0 0 0 965.64 213.80
  L 994.48 213.80
  A 0.35 0.35 0.0 0 0 994.80 213.32
  L 980.39 175.87
  A 0.35 0.35 0.0 0 0 979.73 175.87
  L 965.32 213.32
  Z"
/>
<path fill="#cd6242" d="
  M 0.00 214.35
  L 0.00 212.28
  Q 1.40 207.70 5.63 207.61
  C 10.94 207.50 13.43 214.26 9.33 217.68
  C 5.80 220.61 1.43 218.53 0.00 214.35
  Z"
/>
<circle fill="#cd6242" cx="95.12" cy="213.30" r="5.67"/>
<circle fill="#cd6242" cx="184.52" cy="213.31" r="5.68"/>
<circle fill="#cd6242" cx="452.70" cy="213.31" r="5.67"/>
<circle fill="#cd6242" cx="273.90" cy="213.32" r="5.68"/>
<circle fill="#cd6242" cx="363.31" cy="213.32" r="5.67"/>
<path fill="#cd6242" d="
  M 2427.00 508.96
  L 2427.00 680.99
  L 2236.58 681.00
  Q 2235.81 681.00 2235.20 680.53
  Q 2115.51 588.75 1995.69 496.82
  Q 1968.87 476.25 1955.62 447.52
  Q 1967.15 433.32 1969.97 412.74
  Q 1971.81 399.35 1969.75 383.77
  Q 1966.95 362.65 1953.16 347.80
  Q 1971.43 303.56 2013.24 282.25
  Q 2043.41 266.86 2078.87 268.88
  Q 2116.45 271.02 2147.50 294.78
  Q 2287.36 401.80 2427.00 508.96
  Z
  M 2023.88 349.58
  Q 2023.13 350.22 2023.14 349.24
  L 2023.15 336.83
  Q 2023.15 336.25 2022.58 336.25
  L 2003.27 336.25
  Q 2002.67 336.25 2002.67 336.86
  L 2002.66 461.05
  Q 2002.66 461.69 2003.30 461.69
  L 2022.81 461.71
  A 0.34 0.33 90.0 0 0 2023.14 461.37
  L 2023.14 368.72
  Q 2023.14 368.02 2023.69 367.58
  C 2035.92 358.02 2051.17 350.18 2067.23 353.82
  Q 2079.24 356.54 2082.01 369.11
  Q 2083.93 377.86 2083.95 390.76
  Q 2083.99 426.48 2083.96 461.12
  A 0.56 0.56 0.0 0 0 2084.52 461.69
  L 2104.18 461.70
  A 0.26 0.26 0.0 0 0 2104.44 461.44
  Q 2104.47 424.08 2104.48 382.34
  C 2104.48 363.68 2100.22 343.06 2080.80 335.66
  C 2060.62 327.98 2039.79 336.06 2023.88 349.58
  Z"
/>
<path fill="#cd6242" d="
  M 0.00 290.62
  L 0.00 288.54
  C 2.09 282.37 10.67 282.54 11.33 289.09
  C 12.04 296.14 2.23 297.88 0.00 290.62
  Z"
/>
<circle fill="#cd6242" cx="95.12" cy="289.68" r="5.67"/>
<circle fill="#cd6242" cx="184.51" cy="289.67" r="5.67"/>
<circle fill="#cd6242" cx="273.90" cy="289.68" r="5.67"/>
<circle fill="#cd6242" cx="363.31" cy="289.68" r="5.67"/>
<circle fill="#cd6242" cx="452.70" cy="289.68" r="5.67"/>
<rect fill="#233746" x="1511.10" y="293.32" width="23.12" height="21.94" rx="0.34"/>
<rect fill="#233746" x="1804.89" y="293.32" width="23.10" height="21.94" rx="0.34"/>
<path fill="#233746" d="
  M 1467.41 294.48
  L 1488.75 294.49
  A 0.31 0.31 0.0 0 1 1489.04 294.90
  L 1430.19 461.47
  A 0.31 0.31 0.0 0 1 1429.90 461.68
  L 1401.62 461.68
  A 0.31 0.31 0.0 0 1 1401.33 461.47
  L 1342.47 294.90
  A 0.31 0.31 0.0 0 1 1342.76 294.49
  L 1365.19 294.49
  A 0.31 0.31 0.0 0 1 1365.48 294.70
  L 1416.01 440.71
  A 0.31 0.31 0.0 0 0 1416.59 440.71
  L 1467.12 294.69
  A 0.31 0.31 0.0 0 1 1467.41 294.48
  Z"
/>
<path fill="#171617" d="
  M 783.71 461.95
  C 750.04 445.70 733.50 409.88 741.38 373.59
  C 747.73 344.36 770.29 322.21 799.30 314.55
  C 839.59 303.91 887.02 316.99 906.02 357.16
  C 914.33 374.74 915.57 395.59 910.25 414.04
  C 894.80 467.66 829.40 484.01 783.71 461.95
  Z
  M 782.34 324.43
  C 753.29 340.20 738.33 370.64 743.34 403.19
  Q 748.13 434.22 773.94 452.81
  C 790.74 464.91 811.79 469.43 832.77 468.26
  C 874.02 465.96 908.63 437.83 910.35 395.00
  Q 911.76 360.26 888.01 337.09
  C 878.15 327.47 865.39 320.68 852.08 317.16
  C 829.50 311.18 802.76 313.35 782.34 324.43
  Z"
/>
<path fill="#171617" d="
  M 579.20 317.63
  Q 578.37 316.23 577.35 314.74
  A 0.48 0.48 0.0 0 1 577.74 313.99
  L 631.49 313.99
  Q 632.02 313.99 632.30 314.45
  L 663.04 366.51
  A 0.56 0.56 0.0 0 0 664.00 366.51
  L 694.85 314.52
  Q 695.17 313.99 695.78 313.99
  L 744.81 313.99
  Q 745.60 313.99 745.20 314.68
  Q 717.40 361.62 689.49 408.74
  C 688.27 410.79 687.30 412.45 687.30 414.93
  Q 687.30 440.53 687.35 467.84
  A 0.61 0.60 90.0 0 1 686.75 468.45
  L 635.70 468.45
  A 0.44 0.43 90.0 0 1 635.27 468.01
  Q 635.26 440.06 635.27 413.82
  Q 635.27 411.71 634.14 409.81
  Q 608.43 366.68 579.20 317.63
  Z
  M 583.12 318.41
  Q 609.69 363.10 636.90 408.70
  Q 638.24 410.94 638.24 413.41
  Q 638.27 439.22 638.25 465.19
  A 0.28 0.28 0.0 0 0 638.53 465.47
  L 683.96 465.45
  Q 684.42 465.45 684.42 464.99
  Q 684.18 440.45 684.38 414.00
  Q 684.39 411.52 685.47 409.72
  Q 711.60 365.74 734.65 326.59
  Q 737.58 321.63 740.22 317.39
  A 0.26 0.26 0.0 0 0 740.00 316.99
  L 697.30 316.99
  Q 696.80 316.99 696.55 317.41
  Q 681.79 342.35 666.41 368.20
  C 664.81 370.87 661.71 370.08 660.39 367.84
  Q 646.02 343.35 630.51 317.29
  A 0.63 0.62 -15.0 0 0 629.97 316.98
  L 583.21 316.99
  A 0.70 0.70 0.0 0 0 582.60 317.35
  Q 582.29 317.91 582.68 318.04
  Q 582.97 318.14 583.12 318.41
  Z"
/>
<path fill="#171617" d="
  M 1027.58 416.59
  Q 1030.77 408.83 1030.78 398.18
  Q 1030.80 355.75 1030.78 314.43
  A 0.44 0.44 0.0 0 1 1031.22 313.99
  L 1081.45 313.99
  Q 1081.98 313.99 1081.98 314.52
  Q 1082.00 357.81 1081.96 399.73
  C 1081.92 438.00 1060.81 464.96 1022.49 470.35
  C 989.73 474.95 953.59 466.46 938.63 434.49
  C 932.46 421.32 931.24 407.63 931.31 392.56
  Q 931.50 353.47 931.39 314.61
  Q 931.39 313.99 932.01 313.99
  L 982.76 313.99
  A 0.74 0.73 -90.0 0 1 983.49 314.73
  Q 983.43 358.48 983.51 399.16
  C 983.54 412.11 987.54 426.39 1001.95 428.85
  C 1012.90 430.72 1023.17 427.32 1027.58 416.59
  Z
  M 982.04 411.55
  Q 980.56 405.02 980.55 399.36
  Q 980.47 357.62 980.51 317.49
  Q 980.51 316.99 980.01 316.99
  L 934.99 316.99
  Q 934.40 316.99 934.40 317.58
  Q 934.38 356.86 934.39 398.38
  C 934.41 427.26 945.41 451.91 973.68 462.99
  Q 985.28 467.54 1000.57 468.30
  C 1021.60 469.34 1044.11 465.52 1059.88 450.38
  C 1073.91 436.92 1079.00 418.07 1078.99 398.64
  Q 1078.98 357.12 1079.00 317.53
  Q 1079.00 316.99 1078.45 316.99
  L 1034.46 316.99
  Q 1033.85 316.99 1033.85 317.59
  Q 1033.88 357.14 1033.82 397.12
  C 1033.79 414.25 1028.76 431.40 1008.47 432.19
  C 993.86 432.76 985.07 424.91 982.04 411.55
  Z"
/>
<path fill="#171617" d="
  M 1221.36 421.37
  L 1252.72 467.55
  Q 1253.34 468.46 1252.24 468.46
  L 1198.97 468.46
  A 2.12 2.12 0.0 0 1 1197.20 467.51
  L 1172.23 430.31
  A 1.74 1.74 0.0 0 0 1170.81 429.55
  L 1158.25 429.50
  A 0.51 0.50 -0.0 0 0 1157.74 430.00
  L 1157.74 468.08
  A 0.37 0.36 90.0 0 1 1157.38 468.45
  L 1106.48 468.45
  Q 1105.69 468.45 1105.69 467.66
  L 1105.70 314.32
  Q 1105.70 313.97 1106.06 313.97
  Q 1141.21 314.06 1177.00 313.94
  C 1197.59 313.87 1219.09 317.78 1234.21 332.62
  C 1246.97 345.14 1251.68 362.81 1249.44 380.35
  Q 1245.99 407.41 1221.58 420.46
  Q 1220.96 420.79 1221.36 421.37
  Z
  M 1220.00 418.04
  C 1236.86 408.65 1246.05 394.55 1246.94 375.39
  C 1248.76 336.15 1217.56 317.20 1182.14 317.06
  Q 1145.81 316.91 1109.18 317.02
  Q 1108.68 317.02 1108.68 317.52
  L 1108.68 465.20
  A 0.27 0.27 0.0 0 0 1108.95 465.47
  L 1154.20 465.46
  A 0.56 0.56 0.0 0 0 1154.76 464.90
  Q 1154.72 446.87 1154.78 430.53
  Q 1154.80 426.62 1158.77 426.59
  Q 1165.04 426.53 1170.81 426.58
  A 4.63 4.62 -16.7 0 1 1174.61 428.62
  L 1198.94 464.78
  A 1.52 1.51 -16.9 0 0 1200.20 465.45
  L 1246.55 465.44
  Q 1247.74 465.44 1247.07 464.46
  L 1218.85 422.87
  A 3.37 3.37 0.0 0 1 1220.00 418.04
  Z"
/>
<path fill="#233746" d="
  M 1953.16 347.80
  Q 1966.95 362.65 1969.75 383.77
  Q 1971.81 399.35 1969.97 412.74
  Q 1967.15 433.32 1955.62 447.52
  Q 1942.25 462.63 1922.00 464.69
  C 1887.82 468.18 1864.16 447.44 1859.65 413.90
  C 1857.30 396.42 1858.62 376.23 1866.79 360.98
  C 1879.39 337.45 1902.52 329.32 1927.74 334.03
  Q 1942.24 336.74 1953.16 347.80
  Z
  M 1947.08 421.02
  Q 1953.13 396.92 1946.14 373.56
  Q 1938.79 352.27 1917.01 350.97
  C 1895.79 349.70 1883.87 363.88 1880.91 383.37
  C 1877.08 408.46 1880.79 448.18 1916.06 446.84
  Q 1936.55 446.06 1944.87 427.32
  Q 1946.34 424.00 1947.08 421.02
  Z"
/>
<path fill="#233746" d="
  M 2023.88 349.58
  C 2039.79 336.06 2060.62 327.98 2080.80 335.66
  C 2100.22 343.06 2104.48 363.68 2104.48 382.34
  Q 2104.47 424.08 2104.44 461.44
  A 0.26 0.26 0.0 0 1 2104.18 461.70
  L 2084.52 461.69
  A 0.56 0.56 0.0 0 1 2083.96 461.12
  Q 2083.99 426.48 2083.95 390.76
  Q 2083.93 377.86 2082.01 369.11
  Q 2079.24 356.54 2067.23 353.82
  C 2051.17 350.18 2035.92 358.02 2023.69 367.58
  Q 2023.14 368.02 2023.14 368.72
  L 2023.14 461.37
  A 0.34 0.33 90.0 0 1 2022.81 461.71
  L 2003.30 461.69
  Q 2002.66 461.69 2002.66 461.05
  L 2002.67 336.86
  Q 2002.67 336.25 2003.27 336.25
  L 2022.58 336.25
  Q 2023.15 336.25 2023.15 336.83
  L 2023.14 349.24
  Q 2023.13 350.22 2023.88 349.58
  Z"
/>
<path fill="#233746" d="
  M 1654.55 365.22
  C 1639.27 353.95 1614.30 346.21 1596.30 354.57
  Q 1585.84 359.43 1586.78 370.74
  C 1587.64 381.03 1597.25 384.68 1605.99 386.65
  Q 1616.44 389.01 1628.40 391.44
  C 1641.03 394.00 1655.01 400.69 1658.68 414.02
  Q 1664.00 433.29 1652.72 447.52
  C 1644.04 458.47 1630.19 463.31 1615.85 464.38
  Q 1589.98 466.32 1565.79 454.35
  Q 1565.25 454.08 1565.25 453.48
  L 1565.26 430.96
  A 0.67 0.67 0.0 0 1 1566.33 430.42
  C 1582.64 442.75 1602.49 449.50 1622.69 445.69
  C 1631.41 444.04 1638.77 439.36 1639.40 429.62
  C 1640.13 418.40 1633.57 414.05 1623.83 411.59
  Q 1614.59 409.26 1605.34 407.52
  C 1588.26 404.30 1569.29 398.18 1566.35 378.05
  C 1563.41 357.84 1574.56 342.84 1593.01 336.64
  C 1609.87 330.97 1628.75 332.86 1645.88 338.57
  Q 1650.80 340.21 1655.02 342.37
  Q 1655.56 342.64 1655.56 343.24
  L 1655.56 364.71
  A 0.63 0.63 0.0 0 1 1654.55 365.22
  Z"
/>
<path fill="#233746" d="
  M 1746.54 413.86
  Q 1741.34 411.62 1736.86 410.73
  Q 1724.29 408.24 1711.93 405.24
  C 1695.14 401.16 1682.80 391.80 1682.16 373.12
  C 1681.44 352.34 1696.18 339.25 1715.30 334.94
  C 1733.66 330.80 1753.28 334.44 1770.92 342.06
  A 1.50 1.50 0.0 0 1 1771.83 343.44
  L 1771.84 364.64
  A 0.65 0.65 0.0 0 1 1770.81 365.17
  C 1756.66 355.11 1737.26 348.52 1719.91 352.06
  C 1710.61 353.95 1702.50 359.21 1703.00 369.83
  C 1703.28 375.70 1705.84 379.91 1711.07 382.61
  Q 1716.61 385.48 1722.91 386.83
  Q 1735.06 389.43 1746.84 391.94
  C 1763.80 395.55 1776.44 406.03 1776.61 424.75
  C 1776.80 445.90 1760.59 459.79 1740.78 463.24
  Q 1710.66 468.48 1682.03 454.32
  Q 1681.51 454.07 1681.51 453.49
  L 1681.52 430.79
  A 0.59 0.59 0.0 0 1 1682.46 430.32
  Q 1695.54 440.25 1710.44 444.42
  C 1724.30 448.30 1756.28 450.04 1755.71 427.52
  C 1755.54 420.83 1752.87 416.59 1746.54 413.86
  Z"
/>
<rect fill="#233746" x="1512.46" y="336.26" width="20.44" height="125.42" rx="0.41"/>
<rect fill="#233746" x="1806.21" y="336.26" width="20.48" height="125.42" rx="0.38"/>
<path fill="#171617" d="
  M 840.27 352.76
  C 860.94 360.48 867.45 384.44 862.42 403.98
  C 857.75 422.11 841.66 434.08 822.70 432.06
  C 806.02 430.28 794.02 419.33 790.24 402.78
  Q 787.07 388.98 791.15 376.26
  Q 798.06 354.73 820.28 350.70
  Q 830.03 348.93 840.27 352.76
  Z
  M 820.23 428.72
  C 840.44 432.31 857.03 419.50 860.39 399.27
  C 863.39 381.23 856.82 362.13 838.90 355.35
  C 826.86 350.80 812.43 353.20 803.06 362.18
  C 795.97 368.97 792.48 378.24 791.99 388.03
  C 791.00 407.54 800.03 425.12 820.23 428.72
  Z"
/>
<path fill="#171617" d="
  M 1154.78 354.88
  A 3.80 3.80 0.0 0 1 1158.59 351.09
  L 1179.31 351.12
  A 21.26 19.68 0.1 0 1 1200.53 370.84
  L 1200.53 373.80
  A 21.26 19.68 0.1 0 1 1179.23 393.44
  L 1158.51 393.41
  A 3.80 3.80 0.0 0 1 1154.72 389.60
  L 1154.78 354.88
  Z
  M 1157.67 354.80
  L 1157.73 389.90
  A 0.68 0.68 0.0 0 0 1158.41 390.58
  L 1179.46 390.55
  A 18.19 16.97 -0.1 0 0 1197.62 373.55
  L 1197.62 371.03
  A 18.19 16.97 -0.1 0 0 1179.40 354.09
  L 1158.35 354.12
  A 0.68 0.68 0.0 0 0 1157.67 354.80
  Z"
/>
<path fill="#cd6242" d="
  M 499.20 509.46
  C 492.58 509.45 486.84 506.56 483.49 500.71
  Q 466.79 471.57 449.25 441.31
  C 446.04 435.78 445.01 429.20 448.05 423.89
  Q 465.56 393.38 482.55 363.86
  C 486.34 357.28 490.95 353.55 498.74 353.54
  Q 532.67 353.53 568.05 353.53
  Q 575.51 353.52 580.36 358.41
  Q 582.48 360.55 586.39 367.45
  Q 601.54 394.21 616.68 420.05
  C 620.77 427.03 622.18 433.19 618.02 440.38
  Q 601.81 468.42 585.02 497.86
  C 580.86 505.14 576.45 509.42 567.96 509.44
  Q 534.89 509.52 499.20 509.46
  Z
  M 558.38 475.71
  A 0.73 0.73 0.0 0 0 559.01 475.34
  L 584.07 431.84
  A 0.73 0.73 0.0 0 0 584.07 431.12
  L 559.05 387.66
  A 0.73 0.73 0.0 0 0 558.42 387.29
  L 508.39 387.29
  A 0.73 0.73 0.0 0 0 507.76 387.66
  L 482.74 431.12
  A 0.73 0.73 0.0 0 0 482.74 431.84
  L 507.79 475.35
  A 0.73 0.73 0.0 0 0 508.42 475.72
  L 558.38 475.71
  Z"
/>
<path fill="#cd6242" d="
  M 1946.14 373.56
  Q 1953.13 396.92 1947.08 421.02
  Q 1941.74 397.18 1946.14 373.56
  Z"
/>
<path fill="#233746" d="
  M 1176.25 682.00
  L 1157.84 682.00
  Q 1188.39 651.47 1218.73 621.23
  Q 1233.63 606.38 1232.02 585.84
  C 1230.32 564.23 1213.51 547.30 1191.58 545.59
  Q 1171.58 544.03 1157.11 558.36
  Q 1094.85 620.02 1032.81 682.00
  L 1014.37 682.00
  Q 1111.84 584.43 1147.55 549.05
  C 1161.11 535.60 1180.31 529.72 1199.16 533.39
  C 1244.03 542.12 1260.69 597.16 1228.83 629.58
  Q 1217.43 641.18 1176.25 682.00
  Z"
/>
</svg>
